<?xml version="1.0" encoding="UTF-8" standalone="no"?>
<svg xmlns="http://www.w3.org/2000/svg" contentStyleType="text/css"
     height="294px" preserveAspectRatio="none" style="width:1152px;height:294px;background:#FFFFFF;" version="1.1"
     viewBox="0 0 1152 294" width="1152px" zoomAndPan="magnify">
    <defs/>
    <g><!--class Kunde-->
        <g id="elem_Kunde">
            <rect codeLine="1" fill="#F1F1F1" height="48" id="Kunde" rx="2.5" ry="2.5"
                  style="stroke:#181818;stroke-width:0.5;" width="77" x="453" y="239"/>
            <ellipse cx="468" cy="255" fill="#B4A7E5" rx="11" ry="11" style="stroke:#181818;stroke-width:1.0;"/>
            <path d="M468.9531,251.7813 L470.6719,251.7813 C471.0625,251.7813 471.25,251.75 471.375,251.6719 C471.6406,251.5156 471.7813,251.2344 471.7813,250.9375 C471.7813,250.6719 471.6719,250.4063 471.4375,250.2344 C471.2656,250.125 471.125,250.0938 470.6719,250.0938 L465.5313,250.0938 C465.0938,250.0938 464.9688,250.1094 464.8125,250.2031 C464.5625,250.3594 464.4063,250.6563 464.4063,250.9375 C464.4063,251.2188 464.5469,251.4688 464.7656,251.6406 C464.9219,251.75 465.1094,251.7813 465.5313,251.7813 L467.25,251.7813 L467.25,258.2969 L465.5313,258.2969 C465.0938,258.2969 464.9688,258.3125 464.8125,258.4219 C464.5625,258.5781 464.4063,258.8594 464.4063,259.1563 C464.4063,259.4063 464.5469,259.6719 464.7656,259.8281 C464.9219,259.9531 465.125,260 465.5313,260 L470.6719,260 C471.4219,260 471.7813,259.7188 471.7813,259.1563 C471.7813,258.875 471.6719,258.625 471.4375,258.4531 C471.2656,258.3281 471.125,258.2969 470.6719,258.2969 L468.9531,258.2969 L468.9531,251.7813 Z "
                  fill="#000000"/>
            <text fill="#000000" font-family="sans-serif" font-size="14" font-style="italic" lengthAdjust="spacing"
                  textLength="45" x="482" y="259.8467">Kunde
            </text>
            <line style="stroke:#181818;stroke-width:0.5;" x1="454" x2="529" y1="271" y2="271"/>
            <line style="stroke:#181818;stroke-width:0.5;" x1="454" x2="529" y1="279" y2="279"/>
        </g><!--class Privatkunde-->
        <g id="elem_Privatkunde">
            <rect codeLine="2" fill="#F1F1F1" height="48" id="Privatkunde" rx="2.5" ry="2.5"
                  style="stroke:#181818;stroke-width:0.5;" width="118" x="43.5" y="123"/>
            <ellipse cx="58.5" cy="139" fill="#ADD1B2" rx="11" ry="11" style="stroke:#181818;stroke-width:1.0;"/>
            <path d="M60.8438,134.6719 C59.9063,134.2344 59.3125,134.0938 58.4375,134.0938 C55.8125,134.0938 53.8125,136.1719 53.8125,138.8906 L53.8125,140.0156 C53.8125,142.5938 55.9219,144.4844 58.8125,144.4844 C60.0313,144.4844 61.1875,144.1875 61.9375,143.6406 C62.5156,143.2344 62.8438,142.7813 62.8438,142.3906 C62.8438,141.9375 62.4531,141.5469 61.9844,141.5469 C61.7656,141.5469 61.5625,141.625 61.375,141.8125 C60.9219,142.2969 60.9219,142.2969 60.7344,142.3906 C60.3125,142.6563 59.625,142.7813 58.8594,142.7813 C56.8125,142.7813 55.5156,141.6875 55.5156,139.9844 L55.5156,138.8906 C55.5156,137.1094 56.7656,135.7969 58.5,135.7969 C59.0781,135.7969 59.6875,135.9531 60.1563,136.2031 C60.6406,136.4844 60.8125,136.7031 60.9063,137.1094 C60.9688,137.5156 61,137.6406 61.1406,137.7656 C61.2813,137.9063 61.5156,138.0156 61.7344,138.0156 C62,138.0156 62.2656,137.875 62.4375,137.6563 C62.5469,137.5 62.5781,137.3125 62.5781,136.8906 L62.5781,135.4688 C62.5781,135.0313 62.5625,134.9063 62.4688,134.75 C62.3125,134.4844 62.0313,134.3438 61.7344,134.3438 C61.4375,134.3438 61.2344,134.4375 61.0156,134.75 L60.8438,134.6719 Z "
                  fill="#000000"/>
            <text fill="#000000" font-family="sans-serif" font-size="14" lengthAdjust="spacing" textLength="86" x="72.5"
                  y="143.8467">Privatkunde
            </text>
            <line style="stroke:#181818;stroke-width:0.5;" x1="44.5" x2="160.5" y1="155" y2="155"/>
            <line style="stroke:#181818;stroke-width:0.5;" x1="44.5" x2="160.5" y1="163" y2="163"/>
        </g><!--class Businesskunde-->
        <g id="elem_Businesskunde">
            <rect codeLine="3" fill="#F1F1F1" height="64.2969" id="Businesskunde" rx="2.5" ry="2.5"
                  style="stroke:#181818;stroke-width:0.5;" width="296" x="578.5" y="115"/>
            <ellipse cx="669.75" cy="131" fill="#ADD1B2" rx="11" ry="11" style="stroke:#181818;stroke-width:1.0;"/>
            <path d="M672.0938,126.6719 C671.1563,126.2344 670.5625,126.0938 669.6875,126.0938 C667.0625,126.0938 665.0625,128.1719 665.0625,130.8906 L665.0625,132.0156 C665.0625,134.5938 667.1719,136.4844 670.0625,136.4844 C671.2813,136.4844 672.4375,136.1875 673.1875,135.6406 C673.7656,135.2344 674.0938,134.7813 674.0938,134.3906 C674.0938,133.9375 673.7031,133.5469 673.2344,133.5469 C673.0156,133.5469 672.8125,133.625 672.625,133.8125 C672.1719,134.2969 672.1719,134.2969 671.9844,134.3906 C671.5625,134.6563 670.875,134.7813 670.1094,134.7813 C668.0625,134.7813 666.7656,133.6875 666.7656,131.9844 L666.7656,130.8906 C666.7656,129.1094 668.0156,127.7969 669.75,127.7969 C670.3281,127.7969 670.9375,127.9531 671.4063,128.2031 C671.8906,128.4844 672.0625,128.7031 672.1563,129.1094 C672.2188,129.5156 672.25,129.6406 672.3906,129.7656 C672.5313,129.9063 672.7656,130.0156 672.9844,130.0156 C673.25,130.0156 673.5156,129.875 673.6875,129.6563 C673.7969,129.5 673.8281,129.3125 673.8281,128.8906 L673.8281,127.4688 C673.8281,127.0313 673.8125,126.9063 673.7188,126.75 C673.5625,126.4844 673.2813,126.3438 672.9844,126.3438 C672.6875,126.3438 672.4844,126.4375 672.2656,126.75 L672.0938,126.6719 Z "
                  fill="#000000"/>
            <text fill="#000000" font-family="sans-serif" font-size="14" lengthAdjust="spacing" textLength="105"
                  x="690.25" y="135.8467">Businesskunde
            </text>
            <line style="stroke:#181818;stroke-width:0.5;" x1="579.5" x2="873.5" y1="147" y2="147"/>
            <line style="stroke:#181818;stroke-width:0.5;" x1="579.5" x2="873.5" y1="155" y2="155"/>
            <text fill="#000000" font-family="sans-serif" font-size="14" lengthAdjust="spacing" textLength="284"
                  x="584.5" y="171.9951">boolean isVorsteuerAbzugsberechtigt()
            </text>
        </g><!--class Rechnung-->
        <g id="elem_Rechnung">
            <rect codeLine="7" fill="#F1F1F1" height="48" id="Rechnung" rx="2.5" ry="2.5"
                  style="stroke:#181818;stroke-width:0.5;" width="104" x="439.5" y="123"/>
            <ellipse cx="454.5" cy="139" fill="#B4A7E5" rx="11" ry="11" style="stroke:#181818;stroke-width:1.0;"/>
            <path d="M455.4531,135.7813 L457.1719,135.7813 C457.5625,135.7813 457.75,135.75 457.875,135.6719 C458.1406,135.5156 458.2813,135.2344 458.2813,134.9375 C458.2813,134.6719 458.1719,134.4063 457.9375,134.2344 C457.7656,134.125 457.625,134.0938 457.1719,134.0938 L452.0313,134.0938 C451.5938,134.0938 451.4688,134.1094 451.3125,134.2031 C451.0625,134.3594 450.9063,134.6563 450.9063,134.9375 C450.9063,135.2188 451.0469,135.4688 451.2656,135.6406 C451.4219,135.75 451.6094,135.7813 452.0313,135.7813 L453.75,135.7813 L453.75,142.2969 L452.0313,142.2969 C451.5938,142.2969 451.4688,142.3125 451.3125,142.4219 C451.0625,142.5781 450.9063,142.8594 450.9063,143.1563 C450.9063,143.4063 451.0469,143.6719 451.2656,143.8281 C451.4219,143.9531 451.625,144 452.0313,144 L457.1719,144 C457.9219,144 458.2813,143.7188 458.2813,143.1563 C458.2813,142.875 458.1719,142.625 457.9375,142.4531 C457.7656,142.3281 457.625,142.2969 457.1719,142.2969 L455.4531,142.2969 L455.4531,135.7813 Z "
                  fill="#000000"/>
            <text fill="#000000" font-family="sans-serif" font-size="14" font-style="italic" lengthAdjust="spacing"
                  textLength="72" x="468.5" y="143.8467">Rechnung
            </text>
            <line style="stroke:#181818;stroke-width:0.5;" x1="440.5" x2="542.5" y1="155" y2="155"/>
            <line style="stroke:#181818;stroke-width:0.5;" x1="440.5" x2="542.5" y1="163" y2="163"/>
        </g><!--class InterneVerechnung-->
        <g id="elem_InterneVerechnung">
            <rect codeLine="8" fill="#F1F1F1" height="48" id="InterneVerechnung" rx="2.5" ry="2.5"
                  style="stroke:#181818;stroke-width:0.5;" width="171" x="310" y="7"/>
            <ellipse cx="325" cy="23" fill="#ADD1B2" rx="11" ry="11" style="stroke:#181818;stroke-width:1.0;"/>
            <path d="M327.3438,18.6719 C326.4063,18.2344 325.8125,18.0938 324.9375,18.0938 C322.3125,18.0938 320.3125,20.1719 320.3125,22.8906 L320.3125,24.0156 C320.3125,26.5938 322.4219,28.4844 325.3125,28.4844 C326.5313,28.4844 327.6875,28.1875 328.4375,27.6406 C329.0156,27.2344 329.3438,26.7813 329.3438,26.3906 C329.3438,25.9375 328.9531,25.5469 328.4844,25.5469 C328.2656,25.5469 328.0625,25.625 327.875,25.8125 C327.4219,26.2969 327.4219,26.2969 327.2344,26.3906 C326.8125,26.6563 326.125,26.7813 325.3594,26.7813 C323.3125,26.7813 322.0156,25.6875 322.0156,23.9844 L322.0156,22.8906 C322.0156,21.1094 323.2656,19.7969 325,19.7969 C325.5781,19.7969 326.1875,19.9531 326.6563,20.2031 C327.1406,20.4844 327.3125,20.7031 327.4063,21.1094 C327.4688,21.5156 327.5,21.6406 327.6406,21.7656 C327.7813,21.9063 328.0156,22.0156 328.2344,22.0156 C328.5,22.0156 328.7656,21.875 328.9375,21.6563 C329.0469,21.5 329.0781,21.3125 329.0781,20.8906 L329.0781,19.4688 C329.0781,19.0313 329.0625,18.9063 328.9688,18.75 C328.8125,18.4844 328.5313,18.3438 328.2344,18.3438 C327.9375,18.3438 327.7344,18.4375 327.5156,18.75 L327.3438,18.6719 Z "
                  fill="#000000"/>
            <text fill="#000000" font-family="sans-serif" font-size="14" lengthAdjust="spacing" textLength="139" x="339"
                  y="27.8467">InterneVerechnung
            </text>
            <line style="stroke:#181818;stroke-width:0.5;" x1="311" x2="480" y1="39" y2="39"/>
            <line style="stroke:#181818;stroke-width:0.5;" x1="311" x2="480" y1="47" y2="47"/>
        </g><!--class ExternVersandt-->
        <g id="elem_ExternVersandt">
            <rect codeLine="9" fill="#F1F1F1" height="48" id="ExternVersandt" rx="2.5" ry="2.5"
                  style="stroke:#181818;stroke-width:0.5;" width="145" x="783" y="7"/>
            <ellipse cx="798" cy="23" fill="#ADD1B2" rx="11" ry="11" style="stroke:#181818;stroke-width:1.0;"/>
            <path d="M800.3438,18.6719 C799.4063,18.2344 798.8125,18.0938 797.9375,18.0938 C795.3125,18.0938 793.3125,20.1719 793.3125,22.8906 L793.3125,24.0156 C793.3125,26.5938 795.4219,28.4844 798.3125,28.4844 C799.5313,28.4844 800.6875,28.1875 801.4375,27.6406 C802.0156,27.2344 802.3438,26.7813 802.3438,26.3906 C802.3438,25.9375 801.9531,25.5469 801.4844,25.5469 C801.2656,25.5469 801.0625,25.625 800.875,25.8125 C800.4219,26.2969 800.4219,26.2969 800.2344,26.3906 C799.8125,26.6563 799.125,26.7813 798.3594,26.7813 C796.3125,26.7813 795.0156,25.6875 795.0156,23.9844 L795.0156,22.8906 C795.0156,21.1094 796.2656,19.7969 798,19.7969 C798.5781,19.7969 799.1875,19.9531 799.6563,20.2031 C800.1406,20.4844 800.3125,20.7031 800.4063,21.1094 C800.4688,21.5156 800.5,21.6406 800.6406,21.7656 C800.7813,21.9063 801.0156,22.0156 801.2344,22.0156 C801.5,22.0156 801.7656,21.875 801.9375,21.6563 C802.0469,21.5 802.0781,21.3125 802.0781,20.8906 L802.0781,19.4688 C802.0781,19.0313 802.0625,18.9063 801.9688,18.75 C801.8125,18.4844 801.5313,18.3438 801.2344,18.3438 C800.9375,18.3438 800.7344,18.4375 800.5156,18.75 L800.3438,18.6719 Z "
                  fill="#000000"/>
            <text fill="#000000" font-family="sans-serif" font-size="14" lengthAdjust="spacing" textLength="113" x="812"
                  y="27.8467">ExternVersandt
            </text>
            <line style="stroke:#181818;stroke-width:0.5;" x1="784" x2="927" y1="39" y2="39"/>
            <line style="stroke:#181818;stroke-width:0.5;" x1="784" x2="927" y1="47" y2="47"/>
        </g>
        <g id="elem_NP">
            <path d="M6,250.5 L6,275.6328 A0,0 0 0 0 6,275.6328 L199,275.6328 A0,0 0 0 0 199,275.6328 L199,260.5 L189,250.5 L106.5,250.5 L102.5,171.07 L98.5,250.5 L6,250.5 A0,0 0 0 0 6,250.5 "
                  fill="#FEFFDD" style="stroke:#181818;stroke-width:0.5;"/>
            <path d="M189,250.5 L189,260.5 L199,260.5 L189,250.5 " fill="#FEFFDD"
                  style="stroke:#181818;stroke-width:0.5;"/>
            <text fill="#000000" font-family="sans-serif" font-size="13" lengthAdjust="spacing" textLength="172" x="12"
                  y="267.5669">MwSt 18% ist anzuwenden
            </text>
        </g>
        <g id="elem_NB">
            <path d="M570,250.5 L570,275.6328 A0,0 0 0 0 570,275.6328 L883,275.6328 A0,0 0 0 0 883,275.6328 L883,260.5 L873,250.5 L730.5,250.5 L726.5,179.151 L722.5,250.5 L570,250.5 A0,0 0 0 0 570,250.5 "
                  fill="#FEFFDD" style="stroke:#181818;stroke-width:0.5;"/>
            <path d="M873,250.5 L873,260.5 L883,260.5 L873,250.5 " fill="#FEFFDD"
                  style="stroke:#181818;stroke-width:0.5;"/>
            <text fill="#000000" font-family="sans-serif" font-size="13" lengthAdjust="spacing" textLength="292" x="576"
                  y="267.5669">Vorsteuerabzugsberechtigung heißt 0% MwSt
            </text>
        </g>
        <g id="elem_NI">
            <path d="M197,134.5 L197,159.6328 A0,0 0 0 0 197,159.6328 L404,159.6328 A0,0 0 0 0 404,159.6328 L404,144.5 L394,134.5 L314.124,134.5 L376.275,55.07 L306.124,134.5 L197,134.5 A0,0 0 0 0 197,134.5 "
                  fill="#FEFFDD" style="stroke:#181818;stroke-width:0.5;"/>
            <path d="M394,134.5 L394,144.5 L404,144.5 L394,134.5 " fill="#FEFFDD"
                  style="stroke:#181818;stroke-width:0.5;"/>
            <text fill="#000000" font-family="sans-serif" font-size="13" lengthAdjust="spacing" textLength="186" x="203"
                  y="151.5669">In der Buchfürhung hinterlegt
            </text>
        </g>
        <g id="elem_NE">
            <path d="M909.5,134.5 L909.5,159.6328 A0,0 0 0 0 909.5,159.6328 L1145.5,159.6328 A0,0 0 0 0 1145.5,159.6328 L1145.5,144.5 L1135.5,134.5 L1014.08,134.5 L890.307,55.07 L1006.08,134.5 L909.5,134.5 A0,0 0 0 0 909.5,134.5 "
                  fill="#FEFFDD" style="stroke:#181818;stroke-width:0.5;"/>
            <path d="M1135.5,134.5 L1135.5,144.5 L1145.5,144.5 L1135.5,134.5 " fill="#FEFFDD"
                  style="stroke:#181818;stroke-width:0.5;"/>
            <text fill="#000000" font-family="sans-serif" font-size="13" lengthAdjust="spacing" textLength="215"
                  x="915.5" y="151.5669">An externen Empfänger versandt
            </text>
        </g><!--link Privatkunde to Kunde-->
        <g id="link_Privatkunde_Kunde">
            <path codeLine="21"
                  d="M157.295,171.013 C164.707,173.845 172.253,176.587 179.5,179 C266.459,207.95 369.621,233.7797 432.809,248.6641 "
                  fill="none" id="Privatkunde-to-Kunde" style="stroke:#181818;stroke-width:1.0;"/>
            <polygon fill="none" points="434.735,241.9252,452.624,253.281,431.558,255.56,434.735,241.9252"
                     style="stroke:#181818;stroke-width:1.0;"/>
        </g><!--link Businesskunde to Kunde-->
        <g id="link_Businesskunde_Kunde">
            <path codeLine="22" d="M662.596,179 C626.816,196.3573 582.599,217.8075 548.078,234.5534 " fill="none"
                  id="Businesskunde-to-Kunde" style="stroke:#181818;stroke-width:1.0;"/>
            <polygon fill="none" points="551.063,240.8856,530.014,243.3168,544.953,228.2895,551.063,240.8856"
                     style="stroke:#181818;stroke-width:1.0;"/>
        </g><!--link InterneVerechnung to Rechnung-->
        <g id="link_InterneVerechnung_Rechnung">
            <path codeLine="24" d="M414.927,55.07 C427.614,70.135 444.488,90.173 459.166,107.604 " fill="none"
                  id="InterneVerechnung-to-Rechnung" style="stroke:#181818;stroke-width:1.0;"/>
            <polygon fill="none" points="464.573,103.157,472.102,122.965,453.865,112.175,464.573,103.157"
                     style="stroke:#181818;stroke-width:1.0;"/>
        </g><!--link ExternVersandt to Rechnung-->
        <g id="link_ExternVersandt_Rechnung">
            <path codeLine="25"
                  d="M782.722,49.276 C722.43,64.348 634.89,87.992 560.5,115 C560.091,115.148 559.681,115.298 559.27,115.449 "
                  fill="none" id="ExternVersandt-to-Rechnung" style="stroke:#181818;stroke-width:1.0;"/>
            <polygon fill="none" points="561.681,122.024,540.51,122.917,556.504,109.016,561.681,122.024"
                     style="stroke:#181818;stroke-width:1.0;"/>
        </g><!--reverse link Rechnung to Kunde-->
        <g id="link_Rechnung_Kunde">
            <path codeLine="26" d="M491.5,184.304 C491.5,202.2182 491.5,223.2889 491.5,238.9647 " fill="none"
                  id="Rechnung-backto-Kunde" style="stroke:#181818;stroke-width:1.0;"/>
            <polygon fill="#181818" points="491.5,171.07,487.5,177.07,491.5,183.07,495.5,177.07,491.5,171.07"
                     style="stroke:#181818;stroke-width:1.0;"/>
            <text fill="#000000" font-family="sans-serif" font-size="13" lengthAdjust="spacing" textLength="8"
                  x="482.475" y="191.2437">n
            </text>
            <text fill="#000000" font-family="sans-serif" font-size="13" lengthAdjust="spacing" textLength="8"
                  x="482.475" y="227.9677">1
            </text>
        </g><!--SRC=[RP7FIiD04CRlynH3eA12Yhrv4Xh88OXI57hV99DaCKva_xHIzLcy-1ZUyc9kDcj9Mc_XDzzyy-LRoOPK9Gh2EyibGT4AhN6Zv4wOvmb9h9PCMdk6xu2OTrrBWb7gRQUq8KjgdHzihNDIL3H6rkRY4Zu1vF74e-DikGwUsJ1WsdhzXATl0tTO2ouD07U6CBhVFnbStIpSGOE23tPFBWf7A3G-R8Be64NCepXpR4ZsNmQl5pXOZNj9sCiOIrBkBukcwdzKu_K-U4jrq6P1ksOadv0OqvVNgl_csktkGjvHd09CIiJbSiWuBt5W2PoLu7a6yn8yFF6Cuu_Ry6fpuydW7ti_FRx4oPdvyEy38rVpLHnZj8f6ury0]-->
    </g>
</svg>
